<?xml version="1.0" encoding="UTF-8" standalone="no"?>
<!-- Created with Inkscape (http://www.inkscape.org/) -->
<svg
   xmlns:svg="http://www.w3.org/2000/svg"
   xmlns="http://www.w3.org/2000/svg"
   version="1.0"
   width="706.60626"
   height="844.97241"
   id="svg40578"
   xml:space="preserve"><defs
     id="defs40581"><clipPath
       id="clipPath40593"><path
         d="M 0,841 L 595,841 L 595,0 L 0,0 L 0,841 z"
         id="path40595" /></clipPath><clipPath
       id="clipPath40599"><path
         d="M 0.36,841.68 L 595.8,841.68 L 595.8,0 L 0.36,0 L 0.36,841.68 z"
         id="path40601" /></clipPath><clipPath
       id="clipPath40689"><path
         d="M 399.685,682.251 L 467.716,682.251 L 467.716,612.251 L 399.685,612.251 L 399.685,682.251 z"
         id="path40691" /></clipPath><clipPath
       id="clipPath40695"><path
         d="M 0,841 L 595,841 L 595,0 L 0,0 L 0,841 z"
         id="path40697" /></clipPath><clipPath
       id="clipPath40701"><path
         d="M 0.36,841.68 L 595.8,841.68 L 595.8,0 L 0.36,0 L 0.36,841.68 z"
         id="path40703" /></clipPath><clipPath
       id="clipPath40793"><path
         d="M 484.724,682.251 L 552.756,682.251 L 552.756,612.251 L 484.724,612.251 L 484.724,682.251 z"
         id="path40795" /></clipPath><clipPath
       id="clipPath40799"><path
         d="M 0,841 L 595,841 L 595,0 L 0,0 L 0,841 z"
         id="path40801" /></clipPath><clipPath
       id="clipPath40805"><path
         d="M 0.36,841.68 L 595.8,841.68 L 595.8,0 L 0.36,0 L 0.36,841.68 z"
         id="path40807" /></clipPath><radialGradient
       cx="0"
       cy="0"
       r="1"
       fx="0"
       fy="0"
       id="radialGradient40845"
       gradientUnits="userSpaceOnUse"
       gradientTransform="matrix(15.4865,-15.4865,-15.4865,-15.4865,511.748,669.5154)"
       spreadMethod="pad"><stop
         id="stop40847"
         style="stop-color:#ffffff;stop-opacity:1"
         offset="0" /><stop
         id="stop40849"
         style="stop-color:#696a6c;stop-opacity:1"
         offset="1" /></radialGradient><clipPath
       id="clipPath40857"><path
         d="M 484.724,682.251 L 552.756,682.251 L 552.756,612.251 L 484.724,612.251 L 484.724,682.251 z"
         id="path40859" /></clipPath><clipPath
       id="clipPath40863"><path
         d="M 0,841 L 595,841 L 595,0 L 0,0 L 0,841 z"
         id="path40865" /></clipPath><clipPath
       id="clipPath40869"><path
         d="M 0.36,841.68 L 595.8,841.68 L 595.8,0 L 0.36,0 L 0.36,841.68 z"
         id="path40871" /></clipPath><clipPath
       id="clipPath40895"><path
         d="M 147.567,682.251 L 215.598,682.251 L 215.598,612.251 L 147.567,612.251 L 147.567,682.251 z"
         id="path40897" /></clipPath><clipPath
       id="clipPath40901"><path
         d="M 0,841 L 595,841 L 595,0 L 0,0 L 0,841 z"
         id="path40903" /></clipPath><clipPath
       id="clipPath40907"><path
         d="M 0.36,841.68 L 595.8,841.68 L 595.8,0 L 0.36,0 L 0.36,841.68 z"
         id="path40909" /></clipPath><clipPath
       id="clipPath40971"><path
         d="M 229.606,682.251 L 297.638,682.251 L 297.638,612.251 L 229.606,612.251 L 229.606,682.251 z"
         id="path40973" /></clipPath><clipPath
       id="clipPath40977"><path
         d="M 0,841 L 595,841 L 595,0 L 0,0 L 0,841 z"
         id="path40979" /></clipPath><clipPath
       id="clipPath40983"><path
         d="M 0.36,841.68 L 595.8,841.68 L 595.8,0 L 0.36,0 L 0.36,841.68 z"
         id="path40985" /></clipPath><clipPath
       id="clipPath41107"><path
         d="M 314.646,682.251 L 382.677,682.251 L 382.677,612.251 L 314.646,612.251 L 314.646,682.251 z"
         id="path41109" /></clipPath><clipPath
       id="clipPath41113"><path
         d="M 0,841 L 595,841 L 595,0 L 0,0 L 0,841 z"
         id="path41115" /></clipPath><clipPath
       id="clipPath41119"><path
         d="M 0.36,841.68 L 595.8,841.68 L 595.8,0 L 0.36,0 L 0.36,841.68 z"
         id="path41121" /></clipPath><clipPath
       id="clipPath41219"><path
         d="M 399.685,574.543 L 467.716,574.543 L 467.716,504.544 L 399.685,504.544 L 399.685,574.543 z"
         id="path41221" /></clipPath><clipPath
       id="clipPath41225"><path
         d="M 0,841 L 595,841 L 595,0 L 0,0 L 0,841 z"
         id="path41227" /></clipPath><clipPath
       id="clipPath41231"><path
         d="M 0.36,841.68 L 595.8,841.68 L 595.8,0 L 0.36,0 L 0.36,841.68 z"
         id="path41233" /></clipPath><clipPath
       id="clipPath41241"><path
         d="M 455.345,545.226 C 455.621,547.816 457.943,549.692 460.532,549.416 C 463.12,549.141 464.995,546.819 464.719,544.229 C 464.444,541.639 462.122,539.763 459.534,540.038 C 456.945,540.314 455.07,542.636 455.345,545.226"
         id="path41243" /></clipPath><clipPath
       id="clipPath41763"><path
         d="M 399.685,574.543 L 467.716,574.543 L 467.716,504.544 L 399.685,504.544 L 399.685,574.543 z"
         id="path41765" /></clipPath><clipPath
       id="clipPath41769"><path
         d="M 0,841 L 595,841 L 595,0 L 0,0 L 0,841 z"
         id="path41771" /></clipPath><clipPath
       id="clipPath41775"><path
         d="M 0.36,841.68 L 595.8,841.68 L 595.8,0 L 0.36,0 L 0.36,841.68 z"
         id="path41777" /></clipPath><clipPath
       id="clipPath41823"><path
         d="M 484.724,574.543 L 552.756,574.543 L 552.756,504.544 L 484.724,504.544 L 484.724,574.543 z"
         id="path41825" /></clipPath><clipPath
       id="clipPath41829"><path
         d="M 0,841 L 595,841 L 595,0 L 0,0 L 0,841 z"
         id="path41831" /></clipPath><clipPath
       id="clipPath41835"><path
         d="M 0.36,841.68 L 595.8,841.68 L 595.8,0 L 0.36,0 L 0.36,841.68 z"
         id="path41837" /></clipPath><clipPath
       id="clipPath41907"><path
         d="M 149.105,574.543 L 215.598,574.543 L 215.598,504.544 L 149.105,504.544 L 149.105,574.543 z"
         id="path41909" /></clipPath><clipPath
       id="clipPath41913"><path
         d="M 0,841 L 595,841 L 595,0 L 0,0 L 0,841 z"
         id="path41915" /></clipPath><clipPath
       id="clipPath41919"><path
         d="M 0.36,841.68 L 595.8,841.68 L 595.8,0 L 0.36,0 L 0.36,841.68 z"
         id="path41921" /></clipPath><clipPath
       id="clipPath42587"><path
         d="M 229.606,574.543 L 297.638,574.543 L 297.638,504.544 L 229.606,504.544 L 229.606,574.543 z"
         id="path42589" /></clipPath><clipPath
       id="clipPath42593"><path
         d="M 0,841 L 595,841 L 595,0 L 0,0 L 0,841 z"
         id="path42595" /></clipPath><clipPath
       id="clipPath42599"><path
         d="M 0.36,841.68 L 595.8,841.68 L 595.8,0 L 0.36,0 L 0.36,841.68 z"
         id="path42601" /></clipPath><clipPath
       id="clipPath42737"><path
         d="M 269.913,547.204 C 266.697,547.204 264.09,544.596 264.09,541.38 C 264.09,538.165 266.697,535.557 269.913,535.557 C 273.129,535.557 275.736,538.165 275.736,541.38 C 275.736,544.596 273.129,547.204 269.913,547.204"
         id="path42739" /></clipPath><clipPath
       id="clipPath42953"><path
         d="M 229.606,574.543 L 297.638,574.543 L 297.638,504.544 L 229.606,504.544 L 229.606,574.543 z"
         id="path42955" /></clipPath><clipPath
       id="clipPath42959"><path
         d="M 0,841 L 595,841 L 595,0 L 0,0 L 0,841 z"
         id="path42961" /></clipPath><clipPath
       id="clipPath42965"><path
         d="M 0.36,841.68 L 595.8,841.68 L 595.8,0 L 0.36,0 L 0.36,841.68 z"
         id="path42967" /></clipPath><clipPath
       id="clipPath42991"><path
         d="M 314.646,574.543 L 382.677,574.543 L 382.677,504.544 L 314.646,504.544 L 314.646,574.543 z"
         id="path42993" /></clipPath><clipPath
       id="clipPath42997"><path
         d="M 0,841 L 595,841 L 595,0 L 0,0 L 0,841 z"
         id="path42999" /></clipPath><clipPath
       id="clipPath43003"><path
         d="M 0.36,841.68 L 595.8,841.68 L 595.8,0 L 0.36,0 L 0.36,841.68 z"
         id="path43005" /></clipPath><clipPath
       id="clipPath43103"><path
         d="M 337.923,562.831 L 339.952,562.831 L 339.952,562.729 L 340.256,562.731 L 340.561,562.729 L 340.561,562.628 L 340.763,562.632 L 340.967,562.628 L 340.967,562.526 L 341.271,562.526 L 341.271,562.425 L 341.423,562.427 L 341.576,562.425 L 341.576,562.323 L 341.725,562.33 L 341.88,562.323 L 341.88,562.222 L 342.083,562.222 L 342.083,562.12 L 342.286,562.12 L 342.286,562.019 L 342.489,562.019 L 342.489,561.917 L 342.692,561.917 L 342.692,561.816 L 342.895,561.816 L 342.895,561.714 L 343.061,561.667 L 343.199,561.613 L 343.199,561.511 L 343.402,561.511 L 343.504,561.309 L 343.707,561.309 L 343.707,561.207 L 343.857,561.107 L 344.011,561.004 L 344.011,560.903 L 344.214,560.903 L 344.214,560.801 L 344.379,560.688 L 344.656,560.409 L 344.823,560.294 L 344.823,560.193 L 344.924,560.193 L 345.025,559.99 L 345.127,559.99 L 345.127,559.786 L 345.33,559.786 L 345.33,559.584 L 345.44,559.535 L 345.533,559.482 L 345.533,559.279 L 345.736,559.178 L 345.784,558.974 L 345.837,558.772 L 345.938,558.72 L 346.04,558.671 L 346.04,558.468 L 346.15,558.421 L 346.243,558.366 L 346.257,558.297 L 346.25,558.215 L 346.243,558.062 L 346.345,558.062 L 346.386,557.856 L 346.446,557.656 L 346.547,557.656 L 346.551,557.504 L 346.547,557.352 L 346.649,557.352 L 346.649,557.047 L 346.75,557.047 L 346.747,556.899 L 346.75,556.743 L 346.852,556.743 L 346.85,556.49 L 346.852,556.235 L 346.953,556.235 L 346.953,555.829 L 347.055,555.829 L 347.055,554.713 L 347.157,554.713 L 347.055,553.191 L 346.953,553.191 L 346.956,552.939 L 346.953,552.684 L 346.852,552.684 L 346.852,552.278 L 346.75,552.278 L 346.753,552.077 L 346.75,551.872 L 346.649,551.872 L 346.649,551.67 L 346.547,551.67 L 346.498,551.365 L 346.446,551.061 L 346.345,551.061 L 346.289,550.866 L 346.243,550.655 L 346.142,550.655 L 346.142,550.452 L 346.037,550.4 L 345.938,550.35 L 345.884,550.146 L 345.837,549.945 L 345.634,549.843 L 345.634,549.64 L 345.33,549.437 L 345.33,549.234 L 345.229,549.234 L 345.229,549.133 L 345.024,548.982 L 344.823,548.828 L 344.823,548.727 L 344.721,548.727 L 344.721,548.626 L 344.526,548.49 L 344.365,548.322 L 344.204,548.154 L 344.011,548.017 L 344.011,547.915 L 343.808,547.915 L 343.605,547.611 L 343.402,547.611 L 343.301,547.408 L 343.096,547.358 L 342.895,547.306 L 342.793,547.103 L 342.59,547.103 L 342.59,547.002 L 342.378,546.957 L 342.185,546.901 L 342.185,546.799 L 342.032,546.806 L 341.88,546.799 L 341.88,546.698 L 341.677,546.698 L 341.677,546.596 L 341.473,546.598 L 341.271,546.596 L 341.271,546.495 L 340.967,546.495 L 340.967,546.393 L 340.761,546.398 L 340.561,546.393 L 340.561,546.292 L 340.155,546.292 L 340.155,546.19 L 340.063,546.207 L 340.055,546.252 L 340.056,546.275 L 340.046,546.292 L 339.952,546.292 L 339.952,546.19 L 339.596,546.188 L 339.242,546.19 L 339.242,546.089 L 338.025,546.089 L 338.025,546.19 L 337.92,546.182 L 337.914,546.164 L 337.922,546.142 L 337.929,546.12 L 337.924,546.101 L 337.822,546.089 L 337.822,546.19 L 336.908,546.19 L 336.908,546.292 L 336.704,546.289 L 336.503,546.292 L 336.503,546.393 L 336.193,546.439 L 335.894,546.495 L 335.894,546.596 L 335.742,546.592 L 335.59,546.596 L 335.59,546.698 L 335.385,546.75 L 335.183,546.799 L 335.082,547.002 L 334.879,547.002 L 334.879,547.103 L 334.676,547.103 L 334.676,547.205 L 334.466,547.252 L 334.27,547.306 L 334.27,547.408 L 334.067,547.408 L 333.965,547.561 L 333.865,547.712 L 333.715,547.765 L 333.56,547.814 L 333.56,547.915 L 333.357,547.915 L 333.357,548.118 L 333.154,548.118 L 333.053,548.321 L 332.951,548.321 L 332.951,548.423 L 332.747,548.576 L 332.545,548.727 L 332.545,548.828 L 332.444,548.828 L 332.444,549.031 L 332.347,549.082 L 332.241,549.133 L 332.038,549.437 L 331.937,549.437 L 331.937,549.64 L 331.835,549.64 L 331.789,549.694 L 331.772,549.774 L 331.734,549.945 L 331.642,550.004 L 331.531,550.046 L 331.531,550.249 L 331.429,550.249 L 331.429,550.452 L 331.226,550.553 L 331.174,550.694 L 331.167,550.796 L 331.165,550.903 L 331.125,551.061 L 331.024,551.061 L 331.024,551.264 L 330.922,551.264 L 330.925,551.416 L 330.922,551.568 L 330.821,551.568 L 330.823,551.72 L 330.821,551.872 L 330.719,551.872 L 330.673,552.181 L 330.618,552.481 L 330.516,552.481 L 330.508,552.735 L 330.516,552.989 L 330.415,552.989 L 330.415,553.8 L 330.313,553.8 L 330.313,553.902 L 330.387,553.936 L 330.418,553.958 L 330.415,554.104 L 330.313,554.104 L 330.313,554.713 L 330.415,554.713 L 330.415,555.829 L 330.516,555.829 L 330.508,556.086 L 330.516,556.337 L 330.618,556.337 L 330.618,556.641 L 330.719,556.641 L 330.722,556.797 L 330.719,556.946 L 330.821,556.946 L 330.864,557.257 L 330.922,557.554 L 331.024,557.554 L 331.02,557.709 L 331.024,557.859 L 331.125,557.859 L 331.166,558.066 L 331.226,558.265 L 331.328,558.265 L 331.328,558.468 L 331.531,558.569 L 331.531,558.772 L 331.632,558.772 L 331.632,558.975 L 331.734,558.975 L 331.734,559.178 L 331.883,559.281 L 332.038,559.381 L 332.038,559.584 L 332.14,559.584 L 332.444,559.99 L 332.545,559.99 L 332.545,560.193 L 332.647,560.193 L 332.647,560.294 L 332.849,560.447 L 333.053,560.598 L 333.053,560.7 L 333.256,560.7 L 333.256,560.801 L 333.458,560.955 L 333.662,561.106 L 333.662,561.207 L 333.823,561.255 L 333.895,561.269 L 333.966,561.309 L 334.067,561.511 L 334.217,561.516 L 334.372,561.511 L 334.473,561.714 L 334.669,561.772 L 334.879,561.816 L 334.879,561.917 L 335.084,561.961 L 335.285,562.019 L 335.285,562.12 L 335.437,562.127 L 335.59,562.12 L 335.59,562.222 L 335.792,562.222 L 335.792,562.323 L 335.943,562.328 L 336.097,562.323 L 336.097,562.425 L 336.401,562.425 L 336.401,562.526 L 336.79,562.592 L 337.213,562.628 L 337.213,562.729 L 337.521,562.715 L 337.675,562.706 L 337.822,562.729 L 337.906,562.766 L 337.919,562.779 L 337.917,562.79 L 337.826,562.808 L 337.776,562.811 L 337.758,562.813 L 337.923,562.831"
         id="path43105" /></clipPath><clipPath
       id="clipPath43115"><path
         d="M 399.685,468.15 L 467.716,468.15 L 467.716,398.15 L 399.685,398.15 L 399.685,468.15 z"
         id="path43117" /></clipPath><clipPath
       id="clipPath43121"><path
         d="M 0,841 L 595,841 L 595,0 L 0,0 L 0,841 z"
         id="path43123" /></clipPath><clipPath
       id="clipPath43127"><path
         d="M 0.36,841.68 L 595.8,841.68 L 595.8,0 L 0.36,0 L 0.36,841.68 z"
         id="path43129" /></clipPath><clipPath
       id="clipPath43183"><path
         d="M 457.87,446.123 C 457.422,442.625 456.655,438.31 455.342,433.732 C 453.482,427.243 450.905,421.506 447.682,416.677 C 443.819,410.886 439.006,406.397 433.373,403.315 C 431.568,404.548 425.634,408.885 420.025,416.094 C 416.117,421.117 413.128,426.535 411.142,432.197 C 409.564,436.69 408.62,441.35 408.312,446.123 L 457.87,446.123"
         id="path43185" /></clipPath><clipPath
       id="clipPath43203"><path
         d="M 399.685,468.15 L 467.716,468.15 L 467.716,398.15 L 399.685,398.15 L 399.685,468.15 z"
         id="path43205" /></clipPath><clipPath
       id="clipPath43209"><path
         d="M 0,841 L 595,841 L 595,0 L 0,0 L 0,841 z"
         id="path43211" /></clipPath><clipPath
       id="clipPath43215"><path
         d="M 0.36,841.68 L 595.8,841.68 L 595.8,0 L 0.36,0 L 0.36,841.68 z"
         id="path43217" /></clipPath><clipPath
       id="clipPath43227"><path
         d="M 484.724,468.15 L 552.756,468.15 L 552.756,398.15 L 484.724,398.15 L 484.724,468.15 z"
         id="path43229" /></clipPath><clipPath
       id="clipPath43233"><path
         d="M 0,841 L 595,841 L 595,0 L 0,0 L 0,841 z"
         id="path43235" /></clipPath><clipPath
       id="clipPath43239"><path
         d="M 0.36,841.68 L 595.8,841.68 L 595.8,0 L 0.36,0 L 0.36,841.68 z"
         id="path43241" /></clipPath><clipPath
       id="clipPath43355"><path
         d="M 149.105,468.15 L 215.598,468.15 L 215.598,398.15 L 149.105,398.15 L 149.105,468.15 z"
         id="path43357" /></clipPath><clipPath
       id="clipPath43361"><path
         d="M 0,841 L 595,841 L 595,0 L 0,0 L 0,841 z"
         id="path43363" /></clipPath><clipPath
       id="clipPath43367"><path
         d="M 0.36,841.68 L 595.8,841.68 L 595.8,0 L 0.36,0 L 0.36,841.68 z"
         id="path43369" /></clipPath><clipPath
       id="clipPath43447"><path
         d="M 229.606,468.15 L 297.638,468.15 L 297.638,398.15 L 229.606,398.15 L 229.606,468.15 z"
         id="path43449" /></clipPath><clipPath
       id="clipPath43453"><path
         d="M 0,841 L 595,841 L 595,0 L 0,0 L 0,841 z"
         id="path43455" /></clipPath><clipPath
       id="clipPath43459"><path
         d="M 0.36,841.68 L 595.8,841.68 L 595.8,0 L 0.36,0 L 0.36,841.68 z"
         id="path43461" /></clipPath><linearGradient
       x1="0"
       y1="0"
       x2="1"
       y2="0"
       id="linearGradient43561"
       gradientUnits="userSpaceOnUse"
       gradientTransform="matrix(0,-31.3668,-55.4292,0,377.1228,452.6494)"
       spreadMethod="pad"><stop
         id="stop43563"
         style="stop-color:#ffffff;stop-opacity:1"
         offset="0" /><stop
         id="stop43565"
         style="stop-color:#231f20;stop-opacity:1"
         offset="1" /></linearGradient><clipPath
       id="clipPath43573"><path
         d="M 314.646,468.15 L 382.677,468.15 L 382.677,398.15 L 314.646,398.15 L 314.646,468.15 z"
         id="path43575" /></clipPath><clipPath
       id="clipPath43579"><path
         d="M 0,841 L 595,841 L 595,0 L 0,0 L 0,841 z"
         id="path43581" /></clipPath><clipPath
       id="clipPath43585"><path
         d="M 0.36,841.68 L 595.8,841.68 L 595.8,0 L 0.36,0 L 0.36,841.68 z"
         id="path43587" /></clipPath><clipPath
       id="clipPath43663"><path
         d="M 399.685,361.567 L 467.716,361.567 L 467.716,291.567 L 399.685,291.567 L 399.685,361.567 z"
         id="path43665" /></clipPath><clipPath
       id="clipPath43669"><path
         d="M 0,841 L 595,841 L 595,0 L 0,0 L 0,841 z"
         id="path43671" /></clipPath><clipPath
       id="clipPath43675"><path
         d="M 0.36,841.68 L 595.8,841.68 L 595.8,0 L 0.36,0 L 0.36,841.68 z"
         id="path43677" /></clipPath><clipPath
       id="clipPath43745"><path
         d="M 484.724,361.567 L 552.756,361.567 L 552.756,291.567 L 484.724,291.567 L 484.724,361.567 z"
         id="path43747" /></clipPath><clipPath
       id="clipPath43751"><path
         d="M 0,841 L 595,841 L 595,0 L 0,0 L 0,841 z"
         id="path43753" /></clipPath><clipPath
       id="clipPath43757"><path
         d="M 0.36,841.68 L 595.8,841.68 L 595.8,0 L 0.36,0 L 0.36,841.68 z"
         id="path43759" /></clipPath><radialGradient
       cx="0"
       cy="0"
       r="1"
       fx="0"
       fy="0"
       id="radialGradient43773"
       gradientUnits="userSpaceOnUse"
       gradientTransform="matrix(16.8629,0,0,-16.8629,518.789,332.9843)"
       spreadMethod="pad"><stop
         id="stop43775"
         style="stop-color:#ffffff;stop-opacity:1"
         offset="0" /><stop
         id="stop43777"
         style="stop-color:#231f20;stop-opacity:1"
         offset="1" /></radialGradient><clipPath
       id="clipPath43785"><path
         d="M 484.724,361.567 L 552.756,361.567 L 552.756,291.567 L 484.724,291.567 L 484.724,361.567 z"
         id="path43787" /></clipPath><clipPath
       id="clipPath43791"><path
         d="M 0,841 L 595,841 L 595,0 L 0,0 L 0,841 z"
         id="path43793" /></clipPath><clipPath
       id="clipPath43797"><path
         d="M 0.36,841.68 L 595.8,841.68 L 595.8,0 L 0.36,0 L 0.36,841.68 z"
         id="path43799" /></clipPath><clipPath
       id="clipPath43883"><path
         d="M 147.567,361.567 L 215.598,361.567 L 215.598,291.567 L 147.567,291.567 L 147.567,361.567 z"
         id="path43885" /></clipPath><clipPath
       id="clipPath43889"><path
         d="M 0,841 L 595,841 L 595,0 L 0,0 L 0,841 z"
         id="path43891" /></clipPath><clipPath
       id="clipPath43895"><path
         d="M 0.36,841.68 L 595.8,841.68 L 595.8,0 L 0.36,0 L 0.36,841.68 z"
         id="path43897" /></clipPath><clipPath
       id="clipPath44093"><path
         d="M 229.606,361.567 L 297.638,361.567 L 297.638,291.567 L 229.606,291.567 L 229.606,361.567 z"
         id="path44095" /></clipPath><clipPath
       id="clipPath44099"><path
         d="M 0,841 L 595,841 L 595,0 L 0,0 L 0,841 z"
         id="path44101" /></clipPath><clipPath
       id="clipPath44105"><path
         d="M 0.36,841.68 L 595.8,841.68 L 595.8,0 L 0.36,0 L 0.36,841.68 z"
         id="path44107" /></clipPath><clipPath
       id="clipPath44199"><path
         d="M 314.646,361.567 L 382.677,361.567 L 382.677,291.567 L 314.646,291.567 L 314.646,361.567 z"
         id="path44201" /></clipPath><clipPath
       id="clipPath44205"><path
         d="M 0,841 L 595,841 L 595,0 L 0,0 L 0,841 z"
         id="path44207" /></clipPath><clipPath
       id="clipPath44211"><path
         d="M 0.36,841.68 L 595.8,841.68 L 595.8,0 L 0.36,0 L 0.36,841.68 z"
         id="path44213" /></clipPath><clipPath
       id="clipPath44349"><path
         d="M 0,841 L 595,841 L 595,0 L 0,0 L 0,841 z"
         id="path44351" /></clipPath><clipPath
       id="clipPath44355"><path
         d="M 0.36,841.68 L 595.8,841.68 L 595.8,0 L 0.36,0 L 0.36,841.68 z"
         id="path44357" /></clipPath></defs><g
     transform="matrix(1.25,0,0,-1.25,-1.7545144,1049.6997)"
     id="g40587"><g
       transform="matrix(9.8328251,0,0,9.8328251,-2311.3763,-3754.6976)"
       id="g43443"><g
         clip-path="url(#clipPath43447)"
         id="g43445"><g
           clip-path="url(#clipPath43453)"
           id="g43451"><g
             clip-path="url(#clipPath43459)"
             id="g43457"><path
               d="M 287.518,454.949 C 279.551,458.234 264.039,458.118 264.039,458.118 L 264.039,400.121 C 297.3,425.003 287.518,454.949 287.518,454.949 z"
               id="path43463"
               style="fill:#005da3;fill-opacity:1;fill-rule:nonzero;stroke:#005da3;stroke-width:0.83099997;stroke-linecap:butt;stroke-linejoin:miter;stroke-miterlimit:4;stroke-dasharray:none;stroke-opacity:1" /><path
               d="M 239.753,454.949 C 239.753,454.949 229.971,425.003 263.234,400.121 L 263.234,458.118 C 263.234,458.118 247.72,458.234 239.753,454.949 z"
               id="path43465"
               style="fill:#005da3;fill-opacity:1;fill-rule:nonzero;stroke:#005da3;stroke-width:0.83099997;stroke-linecap:butt;stroke-linejoin:miter;stroke-miterlimit:4;stroke-dasharray:none;stroke-opacity:1" /><path
               d="M 264.043,457.523 L 263.234,457.523 C 263.077,457.524 248.07,457.597 240.228,454.497 C 239.949,453.512 238.999,449.761 238.999,444.367 C 238.999,442.132 239.162,439.616 239.605,436.9 C 240.594,430.831 242.763,424.963 246.052,419.457 C 250.167,412.569 256.059,406.228 263.564,400.612 C 263.572,400.608 263.609,400.584 263.635,400.568 C 263.664,400.585 263.702,400.609 263.711,400.614 C 271.214,406.23 277.104,412.569 281.219,419.456 C 284.508,424.961 286.677,430.829 287.666,436.897 C 288.109,439.614 288.272,442.131 288.272,444.366 C 288.272,449.761 287.322,453.512 287.043,454.497 C 279.201,457.597 264.195,457.524 264.043,457.523"
               id="path43467"
               style="fill:#ffffff;fill-opacity:1;fill-rule:nonzero;stroke:none" /><path
               d="M 240.706,459.377 C 240.546,458.961 240.083,458.623 239.429,458.473 C 238.093,458.167 236.978,458.947 236.606,460.57 C 236.232,462.2 236.939,463.429 238.467,463.779 C 239.634,464.047 240.54,463.567 240.99,462.449 L 239.548,461.964 C 239.366,462.455 239.036,462.681 238.683,462.6 C 238.125,462.472 238.007,461.942 238.239,460.929 C 238.46,459.967 238.816,459.562 239.389,459.693 C 239.771,459.781 239.987,460.085 239.946,460.431 L 239.94,460.492 L 239.095,460.298 L 238.849,461.37 L 241.14,461.896 L 241.789,459.069 L 241.04,458.897 L 240.706,459.377"
               id="path43469"
               style="fill:#005da3;fill-opacity:1;fill-rule:nonzero;stroke:none" /><path
               d="M 241.905,462.978 L 243.185,463.182 L 243.308,462.408 C 243.342,463.008 243.624,463.351 244.167,463.437 C 244.234,463.448 244.302,463.451 244.37,463.454 L 244.583,462.115 C 244.468,462.119 244.37,462.111 244.303,462.101 C 243.804,462.022 243.598,461.737 243.678,461.231 L 243.972,459.386 L 242.513,459.154 L 241.905,462.978"
               id="path43471"
               style="fill:#005da3;fill-opacity:1;fill-rule:nonzero;stroke:none" /><path
               d="M 246.834,462.214 C 246.831,462.236 246.829,462.251 246.827,462.274 C 246.783,462.648 246.966,462.897 247.295,462.936 C 247.639,462.976 247.868,462.776 247.916,462.364 C 247.917,462.357 247.918,462.349 247.919,462.342 L 246.834,462.214 z M 249.578,461.392 L 248.131,461.312 C 248.107,460.999 247.925,460.81 247.611,460.773 C 247.214,460.726 246.968,460.948 246.915,461.397 C 246.913,461.412 246.911,461.426 246.91,461.441 L 249.543,461.752 C 249.539,461.85 249.536,461.941 249.527,462.023 C 249.387,463.205 248.447,463.974 247.152,463.822 C 246.554,463.751 246.089,463.514 245.763,463.127 C 245.39,462.681 245.219,462.137 245.29,461.539 C 245.363,460.918 245.717,460.36 246.249,460.036 C 246.649,459.795 247.129,459.707 247.698,459.775 C 248.745,459.898 249.419,460.493 249.578,461.392"
               id="path43473"
               style="fill:#005da3;fill-opacity:1;fill-rule:nonzero;stroke:none" /><path
               d="M 250.163,464.055 L 251.53,464.17 L 251.575,463.621 C 251.75,464.067 252.114,464.324 252.624,464.367 C 253.518,464.443 253.908,464.022 253.99,463.046 L 254.204,460.508 L 252.725,460.384 L 252.525,462.764 C 252.494,463.124 252.374,463.295 252.126,463.275 C 251.871,463.253 251.729,463.052 251.76,462.692 L 251.959,460.319 L 250.487,460.196 L 250.163,464.055"
               id="path43475"
               style="fill:#005da3;fill-opacity:1;fill-rule:nonzero;stroke:none" /><path
               d="M 256.958,461.545 C 256.59,461.524 256.42,461.862 256.378,462.584 C 256.336,463.306 256.467,463.66 256.835,463.682 C 257.197,463.702 257.374,463.366 257.416,462.643 C 257.458,461.921 257.32,461.566 256.958,461.545 z M 257.014,460.575 C 258.27,460.648 259.058,461.516 258.988,462.734 C 258.917,463.96 258.035,464.724 256.78,464.652 C 255.531,464.58 254.735,463.719 254.806,462.493 C 254.876,461.274 255.766,460.503 257.014,460.575"
               id="path43477"
               style="fill:#005da3;fill-opacity:1;fill-rule:nonzero;stroke:none" /><path
               d="M 261.246,462.242 L 261.209,463.454 C 261.201,463.725 261.369,463.896 261.595,463.903 C 261.979,463.915 262.131,463.61 262.152,462.932 C 262.176,462.142 262.067,461.762 261.698,461.75 C 261.404,461.742 261.256,461.903 261.246,462.242 z M 259.804,460.834 L 260.617,460.858 L 260.819,461.407 C 261.148,460.98 261.591,460.782 262.149,460.799 C 262.571,460.812 262.986,461.021 263.255,461.368 C 263.566,461.769 263.738,462.31 263.72,462.92 C 263.681,464.185 263.071,464.913 262.138,464.884 C 261.648,464.869 261.308,464.663 261.183,464.312 L 261.128,466.105 L 259.645,466.06 L 259.804,460.834"
               id="path43479"
               style="fill:#005da3;fill-opacity:1;fill-rule:nonzero;stroke:none" /><path
               d="M 264.586,466.145 L 266.123,466.123 L 266.049,460.895 L 264.512,460.917 L 264.586,466.145"
               id="path43481"
               style="fill:#005da3;fill-opacity:1;fill-rule:nonzero;stroke:none" /><path
               d="M 268.487,463.233 C 268.488,463.256 268.488,463.271 268.489,463.294 C 268.505,463.67 268.726,463.887 269.057,463.873 C 269.403,463.858 269.597,463.624 269.579,463.209 C 269.579,463.202 269.578,463.195 269.578,463.187 L 268.487,463.233 z M 271.066,461.985 L 269.624,462.137 C 269.551,461.831 269.341,461.674 269.025,461.687 C 268.626,461.704 268.418,461.962 268.437,462.413 C 268.437,462.428 268.438,462.444 268.439,462.458 L 271.089,462.346 C 271.1,462.444 271.112,462.534 271.115,462.617 C 271.165,463.806 270.359,464.715 269.057,464.77 C 268.455,464.795 267.958,464.635 267.574,464.305 C 267.136,463.924 266.881,463.414 266.855,462.812 C 266.829,462.187 267.09,461.58 267.563,461.176 C 267.92,460.874 268.38,460.711 268.952,460.687 C 270.006,460.643 270.765,461.123 271.066,461.985"
               id="path43483"
               style="fill:#005da3;fill-opacity:1;fill-rule:nonzero;stroke:none" /><path
               d="M 274.846,465.678 L 278.61,465.309 L 278.49,464.094 L 276.323,464.307 L 276.239,463.445 L 277.941,463.277 L 277.826,462.108 L 276.124,462.275 L 275.932,460.318 L 274.335,460.475 L 274.846,465.678"
               id="path43485"
               style="fill:#005da3;fill-opacity:1;fill-rule:nonzero;stroke:none" /><path
               d="M 280.534,460.645 C 280.169,460.696 280.068,461.061 280.169,461.777 C 280.271,462.493 280.468,462.815 280.834,462.763 C 281.192,462.712 281.3,462.347 281.199,461.631 C 281.097,460.915 280.892,460.594 280.534,460.645 z M 280.398,459.682 C 281.644,459.506 282.587,460.202 282.758,461.41 C 282.93,462.626 282.216,463.549 280.97,463.725 C 279.732,463.901 278.782,463.213 278.61,461.997 C 278.439,460.789 279.16,459.857 280.398,459.682"
               id="path43487"
               style="fill:#005da3;fill-opacity:1;fill-rule:nonzero;stroke:none" /><path
               d="M 285.219,459.846 C 284.857,459.92 284.778,460.289 284.922,460.998 C 285.066,461.707 285.282,462.017 285.644,461.943 C 285.998,461.871 286.085,461.5 285.941,460.792 C 285.797,460.083 285.573,459.775 285.219,459.846 z M 285.026,458.894 C 286.259,458.644 287.241,459.283 287.484,460.479 C 287.728,461.682 287.07,462.646 285.837,462.896 C 284.611,463.144 283.623,462.515 283.378,461.311 C 283.136,460.115 283.8,459.142 285.026,458.894"
               id="path43489"
               style="fill:#005da3;fill-opacity:1;fill-rule:nonzero;stroke:none" /><path
               d="M 288.719,461.134 L 288.153,461.29 L 288.413,462.234 L 289.038,462.062 L 289.446,463.177 L 290.743,462.89 L 290.41,461.684 L 291.115,461.49 L 290.854,460.546 L 290.15,460.74 L 289.741,459.258 C 289.675,459.018 289.744,458.898 289.998,458.828 C 290.1,458.8 290.236,458.786 290.415,458.783 L 290.129,457.744 C 289.814,457.761 289.513,457.805 289.237,457.881 C 288.351,458.125 288.028,458.628 288.255,459.449 L 288.719,461.134"
               id="path43491"
               style="fill:#005da3;fill-opacity:1;fill-rule:nonzero;stroke:none" /><path
               d="M 263.63,457.523 C 263.474,457.524 248.07,457.597 240.228,454.497 C 239.949,453.512 238.999,449.761 238.999,444.367 C 238.999,442.132 239.162,439.616 239.605,436.9 C 240.594,430.831 242.763,424.963 246.052,419.457 C 250.167,412.569 256.059,406.228 263.564,400.612 C 263.572,400.608 263.609,400.584 263.635,400.568 C 263.664,400.585 263.702,400.609 263.711,400.614"
               id="path43493"
               style="fill:#005da3;fill-opacity:1;fill-rule:nonzero;stroke:#005da3;stroke-width:0.208;stroke-linecap:butt;stroke-linejoin:miter;stroke-miterlimit:4;stroke-dasharray:none;stroke-opacity:1" /><path
               d="M 258.608,409.319 C 258.729,408.528 259.212,408.074 259.84,408.074 C 260.468,408.074 260.855,408.476 260.855,409.034 C 260.855,409.605 260.468,409.968 259.804,409.968 L 258.741,409.968 L 258.741,411.836 L 259.683,411.836 C 260.311,411.836 260.673,412.148 260.673,412.628 C 260.673,413.108 260.311,413.471 259.828,413.471 C 259.296,413.471 258.958,413.121 258.837,412.446 L 256.735,412.771 C 257.11,414.483 258.282,415.469 259.9,415.469 C 261.845,415.469 263.041,414.392 263.041,412.926 C 263.041,411.992 262.558,411.253 261.749,410.98 C 262.739,410.708 263.295,409.929 263.295,408.865 C 263.295,407.243 262.026,406.088 259.949,406.088 C 258.064,406.088 256.844,407.126 256.458,409.021 L 258.608,409.319"
               id="path43495"
               style="fill:#ffffff;fill-opacity:1;fill-rule:nonzero;stroke:none" /><path
               d="M 266.665,409.851 C 267.849,409.423 268.429,409.125 268.429,408.58 C 268.429,408.125 268.054,407.827 267.366,407.827 C 266.532,407.827 266.049,408.229 266.049,408.852 C 266.049,409.28 266.254,409.631 266.665,409.851 z M 267.885,411.836 C 266.882,412.213 266.387,412.511 266.387,413.004 C 266.387,413.432 266.762,413.731 267.366,413.731 C 267.957,413.731 268.417,413.264 268.417,412.771 C 268.417,412.355 268.235,412.031 267.885,411.836 z M 265.252,410.695 C 264.346,410.279 263.911,409.618 263.911,408.658 C 263.911,407.113 265.143,406.101 267.305,406.101 C 269.443,406.101 270.784,407.282 270.784,408.878 C 270.784,409.994 270.325,410.772 269.419,411.201 C 270.132,411.616 270.47,412.226 270.47,413.056 C 270.47,414.522 269.346,415.482 267.341,415.482 C 265.397,415.482 264.152,414.263 264.152,412.693 C 264.152,411.849 264.527,411.162 265.252,410.695"
               id="path43497"
               style="fill:#005da3;fill-opacity:1;fill-rule:nonzero;stroke:none" /><path
               d="M 260.524,418.137 C 259.616,416.774 257.69,415.939 255.241,415.939 C 250.233,415.939 246.903,419.667 246.903,425.813 C 246.903,431.988 250.425,435.826 256.149,435.826 C 260.524,435.826 263.359,433.351 264.046,428.956 L 258.516,428.4 C 258.268,430.319 257.277,431.404 255.956,431.404 C 253.865,431.404 253.012,429.596 253.012,425.758 C 253.012,422.114 253.948,420.362 256.094,420.362 C 257.525,420.362 258.543,421.28 258.681,422.559 L 258.708,422.782 L 255.544,422.782 L 255.544,426.842 L 264.129,426.842 L 264.129,416.134 L 261.322,416.134 L 260.524,418.137"
               id="path43499"
               style="fill:#ffffff;fill-opacity:1;fill-rule:nonzero;stroke:none" /><path
               d="M 265.423,435.437 L 279.236,435.437 L 279.236,430.931 L 271.284,430.931 L 271.284,427.733 L 277.53,427.733 L 277.53,423.394 L 271.284,423.394 L 271.284,416.134 L 265.423,416.134 L 265.423,435.437"
               id="path43501"
               style="fill:#005da3;fill-opacity:1;fill-rule:nonzero;stroke:none" /><path
               d="M 263.66,439.686 C 263.66,439.686 261.794,439.468 261.524,441.86 C 261.524,441.86 261.293,442.4 262.335,443.827 L 261.987,444.136 C 261.987,444.136 261.177,442.438 259.441,442.708 C 258.282,442.889 257.234,443.865 257.472,445.113 C 257.682,446.213 258.64,446.894 259.75,446.913 C 259.75,446.913 260.56,446.913 261.254,446.605 L 261.447,447.106 C 261.447,447.106 260.329,447.222 259.711,447.994 C 259.711,447.994 258.168,449.768 259.866,451.273 C 260.441,451.783 261.567,451.742 262.198,451.404 C 263.194,450.87 263.435,449.703 263.5,448.668 C 263.544,448.664 263.615,448.666 263.66,448.674 C 263.664,449.472 263.66,450.269 263.66,451.066 C 263.66,451.438 263.102,451.962 262.861,452.167 C 262.076,452.832 260.714,452.931 259.943,452.661 C 258.647,452.208 258.012,450.998 257.975,449.691 C 257.975,449.691 257.937,448.302 258.978,447.608 C 258.614,447.85 257.532,447.154 257.294,446.95 C 256.279,446.081 256.104,444.758 256.482,443.536 C 256.857,442.323 257.987,441.683 259.248,441.667 C 259.248,441.667 259.904,441.474 260.792,442.091 C 260.792,442.091 259.855,438.978 263.66,438.413 L 263.66,439.686"
               id="path43503"
               style="fill:#ffffff;fill-opacity:1;fill-rule:nonzero;stroke:none" /><path
               d="M 263.676,439.686 C 263.676,439.686 265.542,439.468 265.812,441.86 C 265.812,441.86 266.043,442.4 265.002,443.827 L 265.349,444.136 C 265.349,444.136 266.159,442.438 267.895,442.708 C 269.055,442.889 270.102,443.865 269.865,445.113 C 269.655,446.213 268.697,446.894 267.586,446.913 C 267.586,446.913 266.776,446.913 266.082,446.605 L 265.889,447.106 C 265.889,447.106 267.008,447.222 267.625,447.994 C 267.625,447.994 269.168,449.768 267.471,451.273 C 266.895,451.783 265.769,451.742 265.138,451.404 C 264.142,450.87 263.901,449.703 263.836,448.668 C 263.792,448.664 263.721,448.666 263.676,448.674 C 263.673,449.472 263.676,450.269 263.676,451.066 C 263.676,451.438 264.234,451.962 264.475,452.167 C 265.26,452.832 266.622,452.931 267.394,452.661 C 268.689,452.208 269.325,450.998 269.361,449.691 C 269.361,449.691 269.399,448.302 268.358,447.608 C 268.722,447.85 269.804,447.154 270.042,446.95 C 271.057,446.081 271.232,444.758 270.854,443.536 C 270.479,442.323 269.349,441.683 268.088,441.667 C 268.088,441.667 267.432,441.474 266.545,442.091 C 266.545,442.091 267.481,438.978 263.676,438.413 L 263.676,439.686"
               id="path43505"
               style="fill:#005da3;fill-opacity:1;fill-rule:nonzero;stroke:none" /><path
               d="M 263.66,456.428 C 263.66,456.428 262.528,455.863 261.486,453.086 C 261.486,453.086 262.489,453.008 263.106,452.391 C 263.106,452.391 263.212,453.406 263.66,454.962 L 263.66,456.428"
               id="path43507"
               style="fill:#ffffff;fill-opacity:1;fill-rule:nonzero;stroke:none" /><path
               d="M 263.666,456.452 C 263.666,456.452 264.799,455.887 265.841,453.11 C 265.841,453.11 264.838,453.033 264.22,452.416 C 264.22,452.416 264.115,453.429 263.666,454.986 L 263.666,456.452"
               id="path43509"
               style="fill:#005da3;fill-opacity:1;fill-rule:nonzero;stroke:none" /><path
               d="M 256.368,446.2 C 256.368,446.2 256.823,447.064 257.594,447.474 C 257.594,447.474 256.655,447.872 255.297,448.756 L 253.897,449.184 L 253.896,449.185 C 253.896,449.185 254.017,448.009 256.368,446.2"
               id="path43511"
               style="fill:#ffffff;fill-opacity:1;fill-rule:nonzero;stroke:none" /><path
               d="M 253.874,449.198 L 253.876,449.197 L 255.276,448.769 C 256.896,448.742 257.897,448.546 257.897,448.546 C 257.487,449.317 257.707,450.299 257.707,450.299 C 254.746,450.116 253.874,449.198 253.874,449.198"
               id="path43513"
               style="fill:#ffffff;fill-opacity:1;fill-rule:nonzero;stroke:none" /><path
               d="M 261.225,439.132 C 261.225,439.132 260.553,439.842 260.415,440.704 C 260.415,440.704 259.736,439.944 258.46,438.945 L 257.602,437.759 L 257.601,437.757 C 257.601,437.757 258.753,437.492 261.225,439.132"
               id="path43515"
               style="fill:#ffffff;fill-opacity:1;fill-rule:nonzero;stroke:none" /><path
               d="M 257.582,437.741 L 257.583,437.742 L 258.441,438.929 C 258.989,440.454 259.498,441.337 259.498,441.337 C 258.636,441.199 257.778,441.724 257.778,441.724 C 256.995,438.862 257.582,437.741 257.582,437.741"
               id="path43517"
               style="fill:#ffffff;fill-opacity:1;fill-rule:nonzero;stroke:none" /><path
               d="M 271.055,446.2 C 271.055,446.2 270.599,447.064 269.829,447.474 C 269.829,447.474 270.768,447.872 272.125,448.756 L 273.526,449.184 L 273.527,449.185 C 273.527,449.185 273.406,448.009 271.055,446.2"
               id="path43519"
               style="fill:#005da3;fill-opacity:1;fill-rule:nonzero;stroke:none" /><path
               d="M 273.548,449.198 L 273.547,449.197 L 272.146,448.769 C 270.527,448.742 269.526,448.546 269.526,448.546 C 269.936,449.317 269.716,450.299 269.716,450.299 C 272.676,450.116 273.548,449.198 273.548,449.198"
               id="path43521"
               style="fill:#005da3;fill-opacity:1;fill-rule:nonzero;stroke:none" /><path
               d="M 266.198,439.132 C 266.198,439.132 266.869,439.842 267.007,440.704 C 267.007,440.704 267.687,439.944 268.963,438.945 L 269.821,437.759 L 269.822,437.757 C 269.822,437.757 268.669,437.492 266.198,439.132"
               id="path43523"
               style="fill:#005da3;fill-opacity:1;fill-rule:nonzero;stroke:none" /><path
               d="M 269.841,437.741 L 269.84,437.742 L 268.982,438.929 C 268.433,440.454 267.924,441.337 267.924,441.337 C 268.786,441.199 269.644,441.724 269.644,441.724 C 270.427,438.862 269.841,437.741 269.841,437.741"
               id="path43525"
               style="fill:#005da3;fill-opacity:1;fill-rule:nonzero;stroke:none" /><path
               d="M 263.486,448.466 L 260.668,450.551 C 260.668,450.551 260.253,450.767 260.322,450.334 L 261.666,447.125 C 261.666,447.125 262.921,448.533 263.486,448.466"
               id="path43527"
               style="fill:#ffffff;fill-opacity:1;fill-rule:nonzero;stroke:none" /><path
               d="M 261.264,446.544 L 258.375,444.56 C 258.375,444.56 258.035,444.237 258.466,444.161 L 261.938,444.387 C 261.938,444.387 261.016,446.032 261.264,446.544"
               id="path43529"
               style="fill:#ffffff;fill-opacity:1;fill-rule:nonzero;stroke:none" /><path
               d="M 263.664,443.781 C 263.201,443.763 262.734,443.797 262.556,443.976 L 263.481,440.595 C 263.481,440.595 263.556,440.429 263.665,440.397 C 263.73,440.378 263.808,440.408 263.888,440.551 L 264.815,443.904 C 264.815,443.904 264.242,443.802 263.664,443.781"
               id="path43531"
               style="fill:#ffffff;fill-opacity:1;fill-rule:nonzero;stroke:none" /><path
               d="M 263.665,440.371 C 263.73,440.352 263.808,440.381 263.888,440.525 L 264.815,443.877 C 264.815,443.877 264.242,443.776 263.664,443.754"
               id="path43533"
               style="fill:#005da3;fill-opacity:1;fill-rule:nonzero;stroke:none" /><path
               d="M 265.373,444.32 L 268.876,444.173 C 268.876,444.173 269.341,444.228 269.041,444.547 L 266.129,446.45 C 266.129,446.45 265.878,444.581 265.373,444.32"
               id="path43535"
               style="fill:#005da3;fill-opacity:1;fill-rule:nonzero;stroke:none" /><path
               d="M 263.915,448.466 L 266.732,450.551 C 266.732,450.551 267.148,450.767 267.079,450.334 L 265.735,447.125 C 265.735,447.125 264.48,448.533 263.915,448.466"
               id="path43537"
               style="fill:#005da3;fill-opacity:1;fill-rule:nonzero;stroke:none" /><path
               d="M 261.777,446.115 C 261.777,447.16 262.618,448.008 263.66,448.021 L 263.66,448.604 C 262.296,448.592 261.193,447.483 261.193,446.115 C 261.193,444.747 262.296,443.638 263.66,443.625 L 263.66,444.209 C 262.618,444.222 261.777,445.07 261.777,446.115"
               id="path43539"
               style="fill:#005da3;fill-opacity:1;fill-rule:nonzero;stroke:none" /><path
               d="M 263.684,448.606 C 263.676,448.606 263.668,448.604 263.66,448.604 L 263.66,448.021 C 263.668,448.021 263.676,448.022 263.684,448.022 C 264.737,448.022 265.591,447.168 265.591,446.115 C 265.591,445.062 264.737,444.208 263.684,444.208 C 263.676,444.208 263.668,444.209 263.66,444.209 L 263.66,443.625 C 263.668,443.625 263.676,443.624 263.684,443.624 C 265.06,443.624 266.175,444.739 266.175,446.115 C 266.175,447.491 265.06,448.606 263.684,448.606"
               id="path43541"
               style="fill:#ffffff;fill-opacity:1;fill-rule:nonzero;stroke:none" /><path
               d="M 261.777,446.115 C 261.777,445.07 262.618,444.222 263.66,444.209 L 263.66,445.033 C 263.072,445.046 262.599,445.524 262.599,446.115 C 262.599,446.706 263.072,447.184 263.66,447.197 L 263.66,448.021 C 262.618,448.008 261.777,447.16 261.777,446.115"
               id="path43543"
               style="fill:#ffffff;fill-opacity:1;fill-rule:nonzero;stroke:none" /><path
               d="M 263.684,447.2 C 264.283,447.2 264.769,446.714 264.769,446.115 C 264.769,445.516 264.283,445.03 263.684,445.03 C 263.676,445.03 263.668,445.032 263.66,445.033 L 263.66,444.209 C 263.668,444.209 263.676,444.208 263.684,444.208 C 264.737,444.208 265.591,445.062 265.591,446.115 C 265.591,447.168 264.737,448.022 263.684,448.022 C 263.676,448.022 263.668,448.021 263.66,448.021 L 263.66,447.197 C 263.668,447.198 263.676,447.2 263.684,447.2"
               id="path43545"
               style="fill:#005da3;fill-opacity:1;fill-rule:nonzero;stroke:none" /><path
               d="M 262.599,446.115 C 262.599,445.524 263.072,445.046 263.66,445.033 L 263.66,447.197 C 263.072,447.184 262.599,446.706 262.599,446.115"
               id="path43547"
               style="fill:#005da3;fill-opacity:1;fill-rule:nonzero;stroke:none" /><path
               d="M 264.769,446.115 C 264.769,446.714 264.283,447.2 263.684,447.2 C 263.676,447.2 263.668,447.198 263.66,447.197 L 263.66,445.033 C 263.668,445.032 263.676,445.03 263.684,445.03 C 264.283,445.03 264.769,445.516 264.769,446.115"
               id="path43549"
               style="fill:#ffffff;fill-opacity:1;fill-rule:nonzero;stroke:none" /></g></g></g></g></g></svg>